<?xml version="1.0" standalone="no"?>
<!DOCTYPE svg PUBLIC "-//W3C//DTD SVG 20010904//EN"
 "http://www.w3.org/TR/2001/REC-SVG-20010904/DTD/svg10.dtd">
<svg role="img" style="width: 25px; height: 25px;" version="1.0" xmlns="http://www.w3.org/2000/svg"
width="96.000000pt" height="96.000000pt" viewBox="0 0 96.000000 96.000000"
preserveAspectRatio="xMidYMid meet">
    <title>Assembly</title>
    <g transform="translate(0.000000,96.000000) scale(0.100000,-0.100000)"
    stroke="none">
        <path d="M174 668 c-55 -95 -99 -180 -99 -188 0 -8 44 -93 99 -188 l98 -172
        208 0 208 0 101 174 c56 96 101 180 101 186 0 6 -45 90 -101 186 l-101 174
        -208 0 -208 0 -98 -172z m183 -183 c38 -115 39 -118 16 -113 -9 2 -21 18 -25
        36 -8 28 -13 32 -43 32 -30 0 -37 -5 -49 -35 -13 -30 -36 -49 -36 -29 0 12 53
        179 62 197 20 38 41 13 75 -88z m167 94 c36 -17 22 -30 -23 -23 -46 7 -71 -14
        -46 -40 9 -9 22 -16 29 -16 7 0 25 -9 40 -21 57 -45 16 -118 -60 -106 -42 7
        -69 26 -55 40 5 5 17 4 30 -3 33 -17 75 -9 79 16 2 16 -5 25 -28 34 -76 32
        -98 72 -60 110 22 22 57 26 94 9z m112 -53 l21 -59 17 62 c13 48 21 61 37 61
        19 0 20 -6 17 -107 -2 -74 -7 -108 -15 -111 -10 -3 -13 17 -14 75 l0 78 -17
        -44 c-23 -59 -38 -62 -54 -9 l-13 43 -5 -69 c-3 -43 -10 -71 -17 -74 -10 -3
        -13 23 -13 108 0 101 2 111 18 108 11 -2 25 -25 38 -62z"/>
        <path d="M292 521 c-18 -50 -15 -61 13 -61 28 0 29 9 11 60 l-13 34 -11 -33z"/>
    </g>
</svg> 
